<svg width="2048" height="1152" viewBox="0 0 2048 1152" fill="none" xmlns="http://www.w3.org/2000/svg">
  <rect width="2048" height="1152" fill="#030303"/>
  <radialGradient id="glow" cx="0" cy="0" r="1" gradientUnits="userSpaceOnUse" gradientTransform="translate(1024 560) rotate(90) scale(430 760)">
    <stop stop-color="#D8B96C" stop-opacity=".22"/>
    <stop offset=".38" stop-color="#8E7530" stop-opacity=".12"/>
    <stop offset="1" stop-color="#000" stop-opacity="0"/>
  </radialGradient>
  <rect width="2048" height="1152" fill="url(#glow)"/>

  <g filter="url(#shadow)">
    <g opacity=".96">
      <rect x="226" y="478" width="472" height="196" rx="26" fill="#171717" stroke="#6E5B2B" stroke-width="8"/>
      <rect x="1350" y="478" width="472" height="196" rx="26" fill="#171717" stroke="#6E5B2B" stroke-width="8"/>
      <g stroke="#A88A43" stroke-width="7">
        <path d="M284 488v176M356 488v176M428 488v176M500 488v176M572 488v176M644 488v176"/>
        <path d="M1404 488v176M1476 488v176M1548 488v176M1620 488v176M1692 488v176M1764 488v176"/>
      </g>
      <g fill="#F5F2E8" opacity=".9">
        <circle cx="317" cy="520" r="6"/><circle cx="389" cy="520" r="6"/><circle cx="461" cy="520" r="6"/><circle cx="533" cy="520" r="6"/><circle cx="605" cy="520" r="6"/>
        <circle cx="317" cy="566" r="6"/><circle cx="389" cy="566" r="6"/><circle cx="461" cy="566" r="6"/><circle cx="533" cy="566" r="6"/><circle cx="605" cy="566" r="6"/>
        <circle cx="317" cy="612" r="6"/><circle cx="389" cy="612" r="6"/><circle cx="461" cy="612" r="6"/><circle cx="533" cy="612" r="6"/><circle cx="605" cy="612" r="6"/>
        <circle cx="1440" cy="520" r="6"/><circle cx="1512" cy="520" r="6"/><circle cx="1584" cy="520" r="6"/><circle cx="1656" cy="520" r="6"/><circle cx="1728" cy="520" r="6"/>
        <circle cx="1440" cy="566" r="6"/><circle cx="1512" cy="566" r="6"/><circle cx="1584" cy="566" r="6"/><circle cx="1656" cy="566" r="6"/><circle cx="1728" cy="566" r="6"/>
        <circle cx="1440" cy="612" r="6"/><circle cx="1512" cy="612" r="6"/><circle cx="1584" cy="612" r="6"/><circle cx="1656" cy="612" r="6"/><circle cx="1728" cy="612" r="6"/>
      </g>
    </g>

    <circle cx="1024" cy="574" r="314" fill="#080808" stroke="#C7A256" stroke-width="18"/>
    <circle cx="1024" cy="574" r="276" fill="#191714" stroke="#F0D58B" stroke-width="10"/>
    <circle cx="1024" cy="574" r="218" fill="#19150E" stroke="#B9964D" stroke-width="8"/>
    <circle cx="1024" cy="574" r="168" fill="#0B0B0B" stroke="#D6B66B" stroke-width="4"/>

    <g stroke="#D8B96C" stroke-width="8">
      <path d="M1024 276v70M1024 802v70M726 574h70M1252 574h70"/>
      <path d="M814 364l48 48M1186 736l48 48M814 784l48-48M1186 412l48-48"/>
    </g>

    <g fill="#F8F4EA" opacity=".92">
      <g id="stones">
        <circle cx="874" cy="410" r="7"/><circle cx="914" cy="388" r="6"/><circle cx="960" cy="374" r="7"/><circle cx="1008" cy="368" r="6"/><circle cx="1055" cy="371" r="7"/><circle cx="1103" cy="384" r="6"/><circle cx="1145" cy="405" r="7"/>
        <circle cx="840" cy="468" r="6"/><circle cx="1209" cy="468" r="6"/><circle cx="820" cy="530" r="7"/><circle cx="1228" cy="530" r="7"/>
        <circle cx="820" cy="620" r="7"/><circle cx="1228" cy="620" r="7"/><circle cx="844" cy="684" r="6"/><circle cx="1204" cy="684" r="6"/>
        <circle cx="884" cy="738" r="7"/><circle cx="928" cy="762" r="6"/><circle cx="976" cy="776" r="7"/><circle cx="1025" cy="781" r="6"/><circle cx="1074" cy="776" r="7"/><circle cx="1121" cy="760" r="6"/><circle cx="1164" cy="735" r="7"/>
      </g>
      <use href="#stones" transform="rotate(12 1024 574)" opacity=".55"/>
      <use href="#stones" transform="rotate(24 1024 574)" opacity=".4"/>
    </g>

    <g fill="#D8B96C" font-family="Georgia, serif" font-weight="700" font-size="54" text-anchor="middle">
      <text x="1024" y="420">XII</text>
      <text x="1168" y="492" transform="rotate(45 1168 492)">II</text>
      <text x="1196" y="600" transform="rotate(90 1196 600)">III</text>
      <text x="1130" y="725" transform="rotate(135 1130 725)">V</text>
      <text x="1024" y="768">VI</text>
      <text x="918" y="725" transform="rotate(-135 918 725)">VII</text>
      <text x="852" y="600" transform="rotate(-90 852 600)">IX</text>
      <text x="880" y="492" transform="rotate(-45 880 492)">X</text>
    </g>

    <g stroke="#F6E8BE" stroke-linecap="round">
      <path d="M1024 574L914 464" stroke-width="14"/>
      <path d="M1024 574L1118 444" stroke-width="8"/>
      <path d="M1024 574L974 710" stroke-width="10"/>
    </g>
    <circle cx="1024" cy="574" r="18" fill="#0B0B0B" stroke="#F0D58B" stroke-width="6"/>

    <g opacity=".82">
      <rect x="980" y="338" width="88" height="70" rx="14" fill="#F6F2E6" stroke="#C7A256" stroke-width="7"/>
      <text x="1024" y="389" fill="#111" font-family="Arial, sans-serif" font-size="42" text-anchor="middle">0</text>
    </g>
  </g>

  <defs>
    <filter id="shadow" x="120" y="180" width="1808" height="790" filterUnits="userSpaceOnUse" color-interpolation-filters="sRGB">
      <feDropShadow dx="0" dy="30" stdDeviation="44" flood-color="#000" flood-opacity=".85"/>
      <feDropShadow dx="0" dy="0" stdDeviation="18" flood-color="#C9A756" flood-opacity=".25"/>
    </filter>
  </defs>
</svg>
